:version 1.10
:name ASF
:units
  mass 1
  length 1
  angle deg
:documentation
  ASF file generated by Kaydara
:root
  axis xyz
  order  tx ty tz rx ry rz
  position 0 0 0
  orientation 0 0 0
:bonedata
  begin
    id 1
    name RightUpLegDummy
    direction -0.718183 -0.695806 0.00816078
    length 4.904
    axis 0 0 0 xyz
  end
  begin
    id 2
    name RightUpLeg
    direction -0.0736652 -0.994202 0.0783343
    length 17.4976
    axis -2.72909 -3.00389 -4.00133 xyz
    dof rx ry rz
  end
  begin
    id 3
    name RightLeg
    direction -0.0389037 -0.994596 -0.0962598
    length 16.5821
    axis 3.95836 -18.5909 -4.46993 xyz
    dof rx ry rz
  end
  begin
    id 4
    name RightFoot
    direction -0.311643 -0.412678 0.855906
    length 3.77069
    axis -1.99483 -18.8351 -3.27644 xyz
    dof rx ry rz
  end
  begin
    id 5
    name RightToes
    direction -0.317852 0.0389852 0.947339
    length 3.85082
    axis -2.00228 -18.1713 -3.25211 xyz
    dof rx ry rz
  end
  begin
    id 6
    name SpineDummy
    direction 8.3039e-015 1 4.44677e-016
    length 4.6813
    axis 0 0 0 xyz
  end
  begin
    id 7
    name Spine
    direction -0.000262373 0.999988 0.00493267
    length 10.1015
    axis -0.00246081 0.00062579 0.0150362 xyz
    dof rx ry rz
  end
  begin
    id 8
    name Spine1
    direction 0 0 0
    length 0
    axis -0.00349562 0.000650293 0.0196666 xyz
    dof rx ry rz
  end
  begin
    id 9
    name HEadDummy
    direction -0.000343232 0.999999 0.00123745
    length 3.43865
    axis -0.00349562 0.000650293 0.0196666 xyz
  end
  begin
    id 10
    name HEad
    direction -0.0461221 0.980933 0.188796
    length 5.12695
    axis -0.00351404 -7.04812 0.0199272 xyz
    dof rx ry rz
  end
  begin
    id 11
    name LeftShoulder1Dummy
    direction 0.998904 -0.0399089 -0.0244534
    length 3.5433
    axis -0.00349562 0.000650293 0.0196666 xyz
  end
  begin
    id 12
    name LeftShoulder1
    direction 0.99951 1.64443e-005 0.0312999
    length 4.05031
    axis -0.00349562 0.000650293 0.0196666 xyz
    dof rx ry rz
  end
  begin
    id 13
    name LeftArm
    direction 0.984791 0.0515299 0.165927
    length 12.9126
    axis -64.823 -10.7743 5.20463 xyz
    dof rx ry rz
  end
  begin
    id 14
    name LeftForeArm
    direction 0.984968 0.0534808 0.16425
    length 10.8596
    axis -30.0462 -7.70601 1.87451 xyz
    dof rx ry rz
  end
  begin
    id 15
    name LeftHand
    direction 0.975871 0.0289682 0.216418
    length 6.62295
    axis -20.1348 -6.98077 1.86072 xyz
    dof rx ry rz
  end
  begin
    id 16
    name RightShoulderDummy
    direction -0.998877 -0.0405946 -0.0244307
    length 3.5433
    axis -0.00349562 0.000650293 0.0196666 xyz
  end
  begin
    id 17
    name RightShoulder
    direction -0.998933 -0.0249743 -0.0388558
    length 4.05031
    axis -0.0205316 -4.02113 1.41395 xyz
    dof rx ry rz
  end
  begin
    id 18
    name RightArm
    direction -0.997559 0.068664 0.0127103
    length 12.9638
    axis -67.3882 1.84188 -6.15987 xyz
    dof rx ry rz
  end
  begin
    id 19
    name RightForeArm
    direction -0.991508 0.0912848 0.0926241
    length 10.8312
    axis -22.1975 3.41087 -4.28711 xyz
    dof rx ry rz
  end
  begin
    id 20
    name RightHand
    direction -0.989262 0.0600788 0.133232
    length 6.57864
    axis -12.2911 2.17515 -4.39675 xyz
    dof rx ry rz
  end
  begin
    id 21
    name LeftUpLegDummy
    direction 0.718183 -0.695806 0.00816078
    length 4.904
    axis 0 0 0 xyz
  end
  begin
    id 22
    name LeftUpLeg
    direction 0.0831398 -0.99469 0.0606531
    length 17.4976
    axis -1.71016 2.29552 4.63832 xyz
    dof rx ry rz
  end
  begin
    id 23
    name LeftLeg
    direction 0.0498442 -0.991778 -0.117862
    length 16.5821
    axis 5.13757 15.5727 5.13348 xyz
    dof rx ry rz
  end
  begin
    id 24
    name LeftFoot
    direction 0.269026 -0.433896 0.85986
    length 3.77069
    axis -0.576502 15.6961 4.10267 xyz
    dof rx ry rz
  end
  begin
    id 25
    name LeftToes
    direction 0.277311 0.0251143 0.960452
    length 3.85048
    axis -0.576502 15.6961 4.10267 xyz
    dof rx ry rz
  end
:hierarchy
  begin
    root RightUpLegDummy SpineDummy LeftUpLegDummy
    RightUpLegDummy RightUpLeg
    RightUpLeg RightLeg
    RightLeg RightFoot
    RightFoot RightToes
    SpineDummy Spine
    Spine Spine1
    Spine1 HEadDummy LeftShoulder1Dummy RightShoulderDummy
    HEadDummy HEad
    LeftShoulder1Dummy LeftShoulder1
    LeftShoulder1 LeftArm
    LeftArm LeftForeArm
    LeftForeArm LeftHand
    RightShoulderDummy RightShoulder
    RightShoulder RightArm
    RightArm RightForeArm
    RightForeArm RightHand
    LeftUpLegDummy LeftUpLeg
    LeftUpLeg LeftLeg
    LeftLeg LeftFoot
    LeftFoot LeftToes
  end

:SAMPLES-PER-SECOND 30
:FULLY-SPECIFIED
:DEGREES
110
root  8.62345 37.5531 -61.8608 169.576 -2.61876 -173.576
RightUpLeg  -11.8165 -15.8567 8.33401
RightLeg  27.7235 10.2616 -3.87702
RightFoot  -6.17744 0.252981 -3.86808
RightToes  3.97569e-016 -3.18055e-015 -2.98177e-016
Spine  13.7776 -5.2396 -1.39866
Spine1  -1.12637 -6.88513 18.0975
HEad  26.9246 9.80699 -6.08066
LeftShoulder1  -3.88251e-019 9.70628e-020 -3.87848e-018
LeftArm  -25.3628 47.9193 -63.4989
LeftForeArm  -27.038 -55.4573 15.135
LeftHand  -1.3053 -8.16757 11.7559
RightShoulder  6.39105 9.51586 31.7997
RightArm  12.9305 -54.6428 -7.31786
RightForeArm  -11.3444 10.0815 -6.39127
RightHand  -0.198765 -4.29144 -18.7266
LeftUpLeg  -9.98753 0.378012 10.6676
LeftLeg  67.3775 -7.70633 17.6224
LeftFoot  -4.45834 0.30562 -4.22699
LeftToes  5.30048e-011 -3.04284e-011 -3.73785e-011
111
root  8.61783 37.9023 -63.068 170.16 -0.703293 -174.738
RightUpLeg  -9.69062 -11.1153 7.13835
RightLeg  26.5569 8.01631 -4.06036
RightFoot  -7.48272 0.160766 -2.82291
RightToes  3.97569e-016 -3.18055e-015 -2.98177e-016
Spine  12.6268 -4.50671 2.16286
Spine1  -1.27387 -4.97911 13.1003
HEad  27.2663 9.02856 -6.29839
LeftShoulder1  -3.88251e-019 9.70628e-020 -3.87848e-018
LeftArm  -23.3484 50.306 -66.4847
LeftForeArm  -25.0511 -49.3322 11.9287
LeftHand  -0.967091 -7.53557 9.21737
RightShoulder  6.72079 9.7487 33.0729
RightArm  12.7811 -55.776 -3.25053
RightForeArm  -15.1876 13.9909 -6.71471
RightHand  -0.256024 -3.90341 -18.3708
LeftUpLeg  -13.9513 4.40171 8.22684
LeftLeg  68.2787 -6.82871 21.4826
LeftFoot  -6.45561 0.220893 -4.11121
LeftToes  5.30048e-011 -3.04284e-011 -3.73785e-011
112
root  8.5916 38.2214 -64.2371 170.676 1.50319 -175.561
RightUpLeg  -7.34595 -5.57075 6.4282
RightLeg  24.7741 4.93292 -4.26916
RightFoot  -8.42625 0.0973057 -1.80702
RightToes  3.97569e-016 -3.18055e-015 -2.98177e-016
Spine  11.5663 -3.47337 5.66963
Spine1  -0.957716 -3.07457 8.8764
HEad  26.1938 8.35282 -6.75113
LeftShoulder1  -3.88251e-019 9.70628e-020 -3.87848e-018
LeftArm  -21.3502 52.3377 -69.2272
LeftForeArm  -25.2824 -42.9308 9.26075
LeftHand  -0.641598 -6.18373 6.90841
RightShoulder  6.87863 9.87937 33.6225
RightArm  13.1854 -55.8362 2.66715
RightForeArm  -16.5124 17.196 -7.51954
RightHand  -0.411586 -2.74011 -17.1513
LeftUpLeg  -17.5822 8.78699 6.16737
LeftLeg  67.2149 -5.98008 22.7204
LeftFoot  -5.07331 0.280258 -4.23091
LeftToes  5.30048e-011 -3.04284e-011 -3.73785e-011
113
root  8.57999 38.4542 -65.3837 171.233 3.17628 -176.1
RightUpLeg  -5.15092 -2.43 6.07256
RightLeg  22.9633 3.49601 -4.2227
RightFoot  -8.84125 0.0695424 -1.1995
RightToes  3.97569e-016 -3.18055e-015 -2.98177e-016
Spine  10.5337 -2.60585 8.16397
Spine1  -0.491504 -1.77741 6.04271
HEad  24.5742 7.86095 -7.01674
LeftShoulder1  -3.88251e-019 9.70628e-020 -3.87848e-018
LeftArm  -21.0836 54.3964 -72.0818
LeftForeArm  -25.1045 -36.8372 7.25462
LeftHand  -0.393718 -4.59321 5.02388
RightShoulder  6.90515 9.93329 33.6422
RightArm  14.2868 -54.1811 9.83216
RightForeArm  -14.2111 19.0303 -8.41453
RightHand  -0.674582 -0.879526 -16.798
LeftUpLeg  -21.038 12.3838 4.29083
LeftLeg  64.289 -5.00334 21.8196
LeftFoot  -1.45197 0.399068 -3.93261
LeftToes  5.30048e-011 -3.04284e-011 -3.73785e-011
114
root  8.56141 38.5853 -66.4764 171.748 4.68761 -176.343
RightUpLeg  -3.38511 -1.64506 5.8552
RightLeg  21.8231 4.24026 -3.80087
RightFoot  -9.70861 0.0509934 -0.772018
RightToes  3.97569e-016 -3.18055e-015 -2.98177e-016
Spine  9.77194 -1.88409 10.1875
Spine1  -0.22653 -0.819255 3.75767
HEad  22.9525 7.61327 -6.96933
LeftShoulder1  -3.88251e-019 9.70628e-020 -3.87848e-018
LeftArm  -22.7826 56.3437 -74.8476
LeftForeArm  -23.5549 -30.7906 5.43823
LeftHand  -0.339218 -3.86973 4.66711
RightShoulder  6.95739 9.98726 33.7975
RightArm  16.2385 -50.5166 16.596
RightForeArm  -8.66349 19.6865 -8.81165
RightHand  -0.9925 1.10851 -17.3622
LeftUpLeg  -23.6817 15.1728 2.88103
LeftLeg  59.1914 -4.1263 18.9268
LeftFoot  2.73939 0.692606 -4.88152
LeftToes  5.30048e-011 -3.04284e-011 -3.73785e-011
115
root  8.51713 38.6398 -67.5259 172.187 6.31512 -176.357
RightUpLeg  -1.99239 -1.5314 5.69402
RightLeg  21.4244 5.7222 -3.34711
RightFoot  -11.1629 0.0389515 -0.397285
RightToes  3.97569e-016 -3.18055e-015 -2.98177e-016
Spine  9.35179 -1.21949 11.8465
Spine1  -0.153539 -0.0204627 1.9144
HEad  21.5165 7.75398 -6.85264
LeftShoulder1  -3.88251e-019 9.70628e-020 -3.87848e-018
LeftArm  -27.4468 58.3111 -77.0865
LeftForeArm  -20.1109 -25.0436 2.7441
LeftHand  -0.454393 -3.9112 6.13329
RightShoulder  7.02086 10.0263 34.0443
RightArm  19.4034 -45.6893 22.1676
RightForeArm  -1.84599 20.1217 -9.29556
RightHand  -1.23654 2.75796 -17.3565
LeftUpLeg  -24.9981 17.4684 1.98577
LeftLeg  51.6348 -3.49746 15.0036
LeftFoot  6.48302 1.10013 -6.29039
LeftToes  5.30048e-011 -3.04284e-011 -3.73785e-011
116
root  8.46645 38.6893 -68.5652 172.639 7.69453 -176.466
RightUpLeg  -0.613734 -1.51235 5.35246
RightLeg  20.9758 6.98323 -3.07972
RightFoot  -12.2708 0.0385897 -0.336777
RightToes  3.97569e-016 -3.18055e-015 -2.98177e-016
Spine  8.92137 -0.63412 12.4426
Spine1  -0.00610762 0.498822 0.756047
HEad  20.4306 8.10429 -6.56834
LeftShoulder1  -3.88251e-019 9.70628e-020 -3.87848e-018
LeftArm  -34.9806 60.5496 -78.7257
LeftForeArm  -14.8549 -19.8734 -0.321331
LeftHand  -0.596291 -3.83103 8.07023
RightShoulder  6.99536 10.0119 33.9422
RightArm  23.1383 -41.2175 26.6604
RightForeArm  3.79214 21.2982 -10.9397
RightHand  -1.34595 4.12918 -16.2287
LeftUpLeg  -24.8172 19.0347 1.09117
LeftLeg  41.4127 -3.37971 10.7713
LeftFoot  8.43745 1.19752 -6.17308
LeftToes  5.30048e-011 -3.04284e-011 -3.73785e-011
117
root  8.41442 38.74 -69.5892 172.919 8.54353 -176.752
RightUpLeg  0.97232 -1.73012 4.6925
RightLeg  20.3779 8.07675 -2.90002
RightFoot  -13.1143 0.039809 -0.231232
RightToes  3.97569e-016 -3.18055e-015 -2.98177e-016
Spine  8.24176 -0.167783 12.1536
Spine1  0.737038 0.823552 -0.0556306
HEad  19.6065 8.13887 -5.83464
LeftShoulder1  -3.88251e-019 9.70628e-020 -3.87848e-018
LeftArm  -39.4476 62.593 -80.1096
LeftForeArm  -12.326 -15.1511 -1.25594
LeftHand  -0.621247 -3.19707 9.0104
RightShoulder  6.89141 9.95951 33.5113
RightArm  24.8109 -37.927 29.9268
RightForeArm  6.98061 23.8754 -13.2319
RightHand  -1.35909 5.04961 -14.9762
LeftUpLeg  -22.888 19.2034 0.338076
LeftLeg  29.0109 -4.46373 6.54705
LeftFoot  8.8973 1.19543 -6.01276
LeftToes  5.30048e-011 -3.04284e-011 -3.73785e-011
118
root  8.33199 38.7256 -70.608 172.618 9.10837 -177.04
RightUpLeg  2.87001 -2.3471 3.78497
RightLeg  20.3135 9.45875 -2.7329
RightFoot  -14.478 0.049493 0.438924
RightToes  3.97569e-016 -3.18055e-015 -2.98177e-016
Spine  7.62246 0.202573 11.8857
Spine1  2.18998 1.24883 -1.075
HEad  18.876 7.62435 -4.71496
LeftShoulder1  -3.88251e-019 9.70628e-020 -3.87848e-018
LeftArm  -41.1541 64.0889 -80.6924
LeftForeArm  -9.91102 -11.0607 -1.11578
LeftHand  -0.498293 -2.0066 8.40893
RightShoulder  6.78507 9.90148 33.0763
RightArm  23.6953 -35.8842 31.6287
RightForeArm  6.15155 27.9459 -15.277
RightHand  -1.31402 4.99122 -14.5775
LeftUpLeg  -19.2627 17.1113 0.561462
LeftLeg  16.9877 -5.5083 3.53045
LeftFoot  10.1304 1.5392 -7.33227
LeftToes  5.30048e-011 -3.04284e-011 -3.73785e-011
119
root  8.20236 38.6805 -71.6322 171.763 9.65318 -177.557
RightUpLeg  5.11502 -2.92293 2.49265
RightLeg  20.5684 10.6954 -2.74367
RightFoot  -15.8632 0.0751468 1.17008
RightToes  3.97569e-016 -3.18055e-015 -2.98177e-016
Spine  7.37649 0.557971 11.4633
Spine1  3.9414 1.88206 -2.52564
HEad  18.3349 6.87066 -3.58503
LeftShoulder1  -3.88251e-019 9.70628e-020 -3.87848e-018
LeftArm  -41.5028 65.4294 -79.9852
LeftForeArm  -6.48344 -8.0573 -0.920316
LeftHand  -0.302029 -0.527559 6.40682
RightShoulder  6.71594 9.85077 32.8201
RightArm  22.5951 -34.9587 31.8041
RightForeArm  -0.406926 32.773 -17.8032
RightHand  -1.25765 4.09107 -15.2467
LeftUpLeg  -15.2423 11.3734 1.68217
LeftLeg  9.51364 -2.48871 1.97917
LeftFoot  12.2481 1.48908 -6.50394
LeftToes  5.30048e-011 -3.04284e-011 -3.73785e-011
120
root  8.01243 38.6444 -72.6652 170.905 10.0627 -178.591
RightUpLeg  6.98117 -2.80558 0.67533
RightLeg  21.3121 10.9087 -3.0744
RightFoot  -16.7761 0.107493 1.75756
RightToes  3.97569e-016 -3.18055e-015 -2.98177e-016
Spine  7.52446 0.867637 10.3138
Spine1  5.01578 2.47544 -4.07171
HEad  18.4184 6.23471 -2.71639
LeftShoulder1  -3.88251e-019 9.70628e-020 -3.87848e-018
LeftArm  -40.5909 67.2095 -78.1836
LeftForeArm  -4.09782 -6.55327 -0.903312
LeftHand  -0.143571 0.723636 3.89802
RightShoulder  6.74398 9.85904 32.9512
RightArm  22.0776 -34.8528 30.4334
RightForeArm  -9.2152 37.9077 -20.7789
RightHand  -1.26898 3.2884 -16.7342
LeftUpLeg  -12.8189 4.98474 1.50354
LeftLeg  8.2624 2.8934 1.72791
LeftFoot  12.6813 0.267153 -0.954932
LeftToes  5.30048e-011 -3.04284e-011 -3.73785e-011
121
root  7.74403 38.565 -73.7237 170.416 9.9875 -179.927
RightUpLeg  7.28604 -2.47749 -1.62426
RightLeg  24.2485 10.5974 -3.54758
RightFoot  -17.5712 0.193962 3.58118
RightToes  3.97569e-016 -3.18055e-015 -2.98177e-016
Spine  7.61934 1.09798 8.90643
Spine1  5.22282 2.84527 -5.19309
HEad  18.9574 5.43771 -2.18019
LeftShoulder1  -3.88251e-019 9.70628e-020 -3.87848e-018
LeftArm  -39.0773 68.9221 -75.6563
LeftForeArm  -3.44547 -6.09323 -0.935256
LeftHand  -0.0818972 1.37317 2.54567
RightShoulder  6.90415 9.95206 33.5944
RightArm  21.9834 -35.1777 27.7505
RightForeArm  -16.6991 42.5483 -23.9657
RightHand  -1.40372 3.21776 -18.6153
LeftUpLeg  -12.1731 3.87706 -1.11205
LeftLeg  10.6321 4.10165 3.1807
LeftFoot  10.3959 -1.082 5.35859
LeftToes  5.30048e-011 -3.04284e-011 -3.73785e-011
122
root  7.43148 38.4473 -74.7628 170.213 9.26578 178.794
RightUpLeg  5.52223 -2.95684 -4.16277
RightLeg  30.4215 10.723 -4.22215
RightFoot  -16.9531 0.267806 6.94109
RightToes  3.97569e-016 -3.18055e-015 -2.98177e-016
Spine  7.54341 1.2471 7.84519
Spine1  5.13429 3.08952 -5.88718
HEad  19.035 4.13883 -1.98102
LeftShoulder1  -3.88251e-019 9.70628e-020 -3.87848e-018
LeftArm  -37.524 69.682 -72.9056
LeftForeArm  -4.174 -6.2464 -0.756194
LeftHand  -0.114736 1.41954 3.55696
RightShoulder  7.11579 10.0734 34.4356
RightArm  21.3339 -36.011 24.5563
RightForeArm  -20.744 45.829 -26.6758
RightHand  -1.64036 3.72001 -20.5371
LeftUpLeg  -12.3883 5.34318 -3.97784
LeftLeg  13.9156 2.47088 4.68562
LeftFoot  6.99493 -1.37325 7.79824
LeftToes  5.30048e-011 -3.04284e-011 -3.73785e-011
